<svg xmlns="http://www.w3.org/2000/svg" width="42.314" height="42.304" viewBox="0 0 42.314 42.304"><path d="M21.156,12.544A10.846,10.846,0,1,0,32,23.39,10.829,10.829,0,0,0,21.156,12.544Zm0,17.9a7.052,7.052,0,1,1,7.052-7.052,7.064,7.064,0,0,1-7.052,7.052ZM34.976,12.1a2.53,2.53,0,1,1-2.53-2.53A2.524,2.524,0,0,1,34.976,12.1Zm7.184,2.568C42,11.279,41.225,8.277,38.743,5.8s-5.475-3.247-8.864-3.417c-3.493-.2-13.961-.2-17.454,0-3.379.16-6.381.935-8.864,3.408S.313,11.269.143,14.658c-.2,3.493-.2,13.961,0,17.454C.3,35.5,1.078,38.5,3.561,40.976s5.475,3.247,8.864,3.417c3.493.2,13.961.2,17.454,0,3.389-.16,6.391-.935,8.864-3.417S41.99,35.5,42.16,32.112c.2-3.493.2-13.952,0-17.445ZM37.648,35.86a7.139,7.139,0,0,1-4.021,4.021c-2.785,1.1-9.393.85-12.47.85s-9.695.245-12.47-.85A7.139,7.139,0,0,1,4.665,35.86c-1.1-2.785-.85-9.393-.85-12.47s-.245-9.695.85-12.47A7.139,7.139,0,0,1,8.686,6.9c2.785-1.1,9.393-.85,12.47-.85s9.695-.245,12.47.85a7.139,7.139,0,0,1,4.021,4.021c1.1,2.785.85,9.393.85,12.47S38.752,33.085,37.648,35.86Z" transform="translate(0.005 -2.238)" fill="rgba(6,40,84,0.4)"/></svg>