<svg xmlns="http://www.w3.org/2000/svg" width="230" height="58.146" viewBox="0 0 230 58.146"><path d="M22.042,32.771v3.457a42.8,42.8,0,0,1-3.659,3.336,25.046,25.046,0,0,1-3.338,2.315,13.085,13.085,0,0,1-6.327,1.683,8.371,8.371,0,0,1-6.239-2.528A8.852,8.852,0,0,1,0,34.564a16.985,16.985,0,0,1,1.225-6.229,20.356,20.356,0,0,1,3.28-5.612A16.573,16.573,0,0,1,9.2,18.766a10.52,10.52,0,0,1,5.146-1.475,6.093,6.093,0,0,1,4.242,1.458A4.984,4.984,0,0,1,20.2,22.642a4.715,4.715,0,0,1-.043.646,1.747,1.747,0,0,1-.307.707,2.507,2.507,0,0,1-1.107.751L15.365,26.4a4.148,4.148,0,0,1-.9.3q-.408,0-.408-.6l.175-1.593.175-1.623a3.915,3.915,0,0,0-.524-2.1,1.637,1.637,0,0,0-1.458-.842,3.685,3.685,0,0,0-2.712,1.49,11.278,11.278,0,0,0-2.128,3.959,16.461,16.461,0,0,0-.816,5.208,9.106,9.106,0,0,0,1.661,5.69,5.3,5.3,0,0,0,4.433,2.167,7.535,7.535,0,0,0,2.813-.541,11.364,11.364,0,0,0,2.872-1.773A35.815,35.815,0,0,0,22.042,32.771Z" transform="translate(0 -0.074)" fill="#505096"/><path d="M53.182,32.771v3.457a77.213,77.213,0,0,1-6.458,5.8,6.8,6.8,0,0,1-4.067,1.533q-4.344,0-4.344-8.386a29.076,29.076,0,0,1-5.481,6.417,8,8,0,0,1-4.986,1.969,4.9,4.9,0,0,1-3.091-1.126A7.447,7.447,0,0,1,22.511,39.3a11.291,11.291,0,0,1-.816-4.293,15.863,15.863,0,0,1,1.545-6.966,20.678,20.678,0,0,1,3.893-5.6,19.815,19.815,0,0,1,5.015-3.768,10.59,10.59,0,0,1,4.768-1.381,5.19,5.19,0,0,1,5.1,3.4l5.948-3.4H49.6l-2.565,8.82-1.342,5.117q-.291,1.265-.466,2.333a10.993,10.993,0,0,0-.175,1.67,3.19,3.19,0,0,0,.495,1.912,1.521,1.521,0,0,0,1.283.677,3.644,3.644,0,0,0,2.157-.992Q50.207,35.837,53.182,32.771ZM37.233,19.756q-1.955,0-3.849,2.446a20.343,20.343,0,0,0-3.091,5.957A19.341,19.341,0,0,0,29.1,34.25a4.348,4.348,0,0,0,.758,2.611,2.46,2.46,0,0,0,1.983,1.02q2.012,0,3.863-2.445a20.74,20.74,0,0,0,3.032-5.987,19.839,19.839,0,0,0,1.181-6.122,4.343,4.343,0,0,0-.7-2.61A2.3,2.3,0,0,0,37.233,19.756Z" transform="translate(0 -0.074)" fill="#505096"/><path d="M52.512,33.442l5.526-5.909,1.615-7.795q.291-1.321.6-2.418t.875-2.9q.569-1.8,1.063-3.244t.963-2.584q.991-2.523,1.691-4.011a21.161,21.161,0,0,1,1.006-1.967q.306-.48,4.01-1.562Q71.7.542,72.672.286A11.249,11.249,0,0,1,73.941,0q1.108,0,1.809,1.5a9.31,9.31,0,0,1,.7,3.9,15.57,15.57,0,0,1-2.536,8.77,57.14,57.14,0,0,1-7.785,8.951l-2.449,12.5q1.4,3.149,4.286,3.149a7.513,7.513,0,0,0,4.228-1.47,22.1,22.1,0,0,0,4.636-4.618v3.449a29.259,29.259,0,0,1-5.89,5.307,10.159,10.159,0,0,1-5.423,2.009,8.394,8.394,0,0,1-3.032-.87l-.584,3.3-.438,2.793-.525,3.484-.611,4.685q-2.449.359-7.29,1.291Q54,49.861,56.272,36.8l-1.137-2.881-1.953,2.219h-.671v-2.7ZM67.031,19.049a25.166,25.166,0,0,0,5.277-6.492,13.636,13.636,0,0,0,2.013-6.582,4.147,4.147,0,0,0-.467-2.039q-.468-.84-1.108-.839Q71.871,3.1,71,4.656q-.321.63-.729,1.679t-.816,2.309q-.729,2.49-1.312,5.158-.438,2.248-.524,2.639Q67.41,17.431,67.031,19.049Z" transform="translate(-0.138)" fill="#505096"/><path d="M98.608,32.771v3.457q-1.517,1.5-2.682,2.54t-2.3,1.909a15.063,15.063,0,0,1-4.009,2.179,12.54,12.54,0,0,1-4.155.707,8.3,8.3,0,0,1-6.4-2.63,9.707,9.707,0,0,1-2.435-6.868A17.409,17.409,0,0,1,77.775,27.9a18.522,18.522,0,0,1,3.076-5.38A15.717,15.717,0,0,1,85.312,18.8a10.4,10.4,0,0,1,5.1-1.413,6.373,6.373,0,0,1,4.329,1.428,4.778,4.778,0,0,1,1.647,3.8,6.332,6.332,0,0,1-2.012,4.6,15.553,15.553,0,0,1-4.694,3.216q-2.535,1.113-6.122,2.285a8.016,8.016,0,0,0,2.172,4.358,5.487,5.487,0,0,0,3.921,1.5,6.407,6.407,0,0,0,2.9-.661,11.043,11.043,0,0,0,2.464-1.684q.5-.42,1.429-1.307T98.608,32.771Zm-15.277-2.1a12.319,12.319,0,0,0,5.554-3.1,6.858,6.858,0,0,0,1.91-4.9,3.558,3.558,0,0,0-.554-2.134,1.757,1.757,0,0,0-1.487-.751,3.521,3.521,0,0,0-2.391,1.263,10.1,10.1,0,0,0-2.144,3.742A17.421,17.421,0,0,0,83.331,30.667Z" transform="translate(-0.199 -0.074)" fill="#505096"/><path d="M144.676,32.771v3.457a77.213,77.213,0,0,1-6.458,5.8,6.8,6.8,0,0,1-4.067,1.533q-4.344,0-4.344-8.386a29.076,29.076,0,0,1-5.481,6.417,8,8,0,0,1-4.986,1.969,4.9,4.9,0,0,1-3.091-1.126A7.447,7.447,0,0,1,114,39.3a11.291,11.291,0,0,1-.816-4.293,15.863,15.863,0,0,1,1.545-6.966,20.678,20.678,0,0,1,3.893-5.6,19.816,19.816,0,0,1,5.015-3.768,10.59,10.59,0,0,1,4.768-1.381,5.19,5.19,0,0,1,5.1,3.4l5.948-3.4h1.633l-2.565,8.82-1.342,5.117q-.291,1.265-.466,2.333a10.992,10.992,0,0,0-.175,1.67,3.19,3.19,0,0,0,.495,1.912,1.521,1.521,0,0,0,1.283.677,3.644,3.644,0,0,0,2.157-.992Q141.7,35.837,144.676,32.771ZM128.728,19.756q-1.955,0-3.849,2.446a20.343,20.343,0,0,0-3.091,5.957,19.341,19.341,0,0,0-1.195,6.091,4.348,4.348,0,0,0,.758,2.611,2.46,2.46,0,0,0,1.983,1.02q2.012,0,3.863-2.445a20.74,20.74,0,0,0,3.032-5.987,19.839,19.839,0,0,0,1.181-6.122,4.343,4.343,0,0,0-.7-2.61A2.305,2.305,0,0,0,128.728,19.756Z" transform="translate(-0.308 -0.074)" fill="#505096"/><path d="M144.006,36.228v-2.7a77.038,77.038,0,0,0,5.978-7.154l2.216-3.1,1.924-2.976,1.108-1.924q.406-.991.787-.992l.875.12a24.812,24.812,0,0,0,2.856.511,24.3,24.3,0,0,0,2.945.181,36.645,36.645,0,0,0,6.327-.631,8.619,8.619,0,0,1,1.37-.18c.35,0,.534.1.554.3a7.068,7.068,0,0,1-1.194,2.345l-2.272,3.036-4.109,5.174-4.2,5.2-2.334,2.915,1.925-.121a27.249,27.249,0,0,1,3.979.676,33.215,33.215,0,0,0,3.659.677,5.132,5.132,0,0,0,2.143-.406,7.1,7.1,0,0,0,1.939-1.442q1.049-1.036,2.8-2.961V36.23l-2.916,3.156a26.608,26.608,0,0,1-2.464,2.33,10.834,10.834,0,0,1-2.26,1.428,7.208,7.208,0,0,1-1.107.361,5.243,5.243,0,0,1-1.166.12,16.018,16.018,0,0,1-3.907-.932,16.346,16.346,0,0,0-4.636-1.052,4.122,4.122,0,0,0-3.179,1.413,1.641,1.641,0,0,1-.7.571q-1.983,0-2.041-.271a9.785,9.785,0,0,1,1.748-2.8l4.224-5.443,5.495-6.812,3.578-4.515a16.472,16.472,0,0,1-3.645.36,18.234,18.234,0,0,1-5.423-.9q-1.867,2.795-3.674,5.17-.5.661-1.225,1.593-1.284,1.623-2,2.495t-1.545,1.8q-.831.932-1.764,1.923h-.67Z" transform="translate(-0.388 -0.074)" fill="#505096"/><path d="M187.6,32.771v3.457q-6.822,7.4-10.205,7.4a3.7,3.7,0,0,1-3.148-2.014,8.938,8.938,0,0,1-1.283-4.9,31.5,31.5,0,0,1,1.21-8.446q1.211-4.358,2.989-9.288l7.4-1.593h.35L182,26.79q-.991,3.307-1.4,5.17a15.186,15.186,0,0,0-.408,3.156,2.773,2.773,0,0,0,.423,1.623,1.258,1.258,0,0,0,1.063.6,3.633,3.633,0,0,0,2.377-.947A43.945,43.945,0,0,0,187.6,32.771ZM180.189,5.32l2.1,1.178a4.433,4.433,0,0,0,1.6.3,5.228,5.228,0,0,0,3.12-1.172,9.281,9.281,0,0,1-1.3,5.38,4.42,4.42,0,0,1-3.863,1.833,6.264,6.264,0,0,1-4.285-1.563A24.253,24.253,0,0,0,180.189,5.32Z" transform="translate(-0.434)" fill="#505096"/><path d="M191.507,18.134l2.726-9.382,7.824-1.658-2.974,10.468,4.052-.241-.962,4.629-4.52.36-1.021,3.367q-.874,2.946-1.4,5.185a17.028,17.028,0,0,0-.524,3.772,3.83,3.83,0,0,0,.7,2.314,2.156,2.156,0,0,0,1.75.872,5.031,5.031,0,0,0,3.134-1.112,39.264,39.264,0,0,0,4.1-3.938v3.457a38.931,38.931,0,0,1-6.473,5.621,9.4,9.4,0,0,1-4.985,1.713,4.777,4.777,0,0,1-4.067-2.194,9.639,9.639,0,0,1-1.561-5.711,21.064,21.064,0,0,1,.408-4.1q.408-2.06,1.167-4.614l1.166-4.088-2.245.121.935-4.718Z" transform="translate(-0.542)" fill="#505096"/><path d="M230.542,32.771v3.457a10.814,10.814,0,0,1-2.552,1.833,5.67,5.67,0,0,1-2.551.631,6.042,6.042,0,0,1-1.035-.075,5.641,5.641,0,0,1-1.035-.315,10.621,10.621,0,0,1-2.1-1.292,16.628,16.628,0,0,1-4.49,4.9,9.9,9.9,0,0,1-2.479,1.232,8.474,8.474,0,0,1-2.653.421,6.906,6.906,0,0,1-3.937-1.174,7.507,7.507,0,0,1-2.7-3.37,12.573,12.573,0,0,1-.948-5.025,17.379,17.379,0,0,1,.525-4.333,16.335,16.335,0,0,1,1.633-4,16.835,16.835,0,0,1,5.846-6.079,14.9,14.9,0,0,1,8-2.287,8.74,8.74,0,0,1,3.6.557,2.628,2.628,0,0,1,1.429,1.294,5.523,5.523,0,0,1,.276,1.912q0,5.6-2.974,13.818a6.389,6.389,0,0,0,1.5,1.039,3.647,3.647,0,0,0,1.618.376,3.994,3.994,0,0,0,2.259-.887A16.78,16.78,0,0,0,230.542,32.771ZM219.608,35.35a12.279,12.279,0,0,1-2.741-7.646,9.848,9.848,0,0,1,.948-4.455,13.563,13.563,0,0,1,3.1-3.853,3.418,3.418,0,0,0-1.254-.181,5.753,5.753,0,0,0-4.636,2.182,13.557,13.557,0,0,0-2.624,5.329,24.465,24.465,0,0,0-.816,6.156,9.586,9.586,0,0,0,.962,4.756,2.89,2.89,0,0,0,2.566,1.655Q217.13,39.293,219.608,35.35Z" transform="translate(-0.542 -0.074)" fill="#505096"/><g transform="translate(87.031 4.641)"><path d="M100.06,4.641c.056,2.96-2.326,4.537-4.13,6.349-3.431,3.447-8.682,3.9-8.682,3.9,1.863-1.284,5.508-7.117,6.316-10.2A14.4,14.4,0,0,0,100.06,4.641Z" transform="translate(-87.248 -4.641)" fill="#505096"/></g></svg>